<svg width="263" height="228" viewBox="0 0 263 228" fill="none" xmlns="http://www.w3.org/2000/svg">
<g filter="url(#filter0_d_4_1420)">
<rect x="54" y="20" width="155" height="120" rx="15" fill="white"/>
</g>
<path d="M79.152 59V47.08H81.232L85.696 53.144H84.704L89.072 47.08H91.152V59H88.96V49.56L89.808 49.768L85.28 55.8H85.024L80.608 49.768L81.328 49.56V59H79.152ZM97.3853 59.192C96.4893 59.192 95.7053 58.9893 95.0333 58.584C94.3613 58.1787 93.8386 57.6293 93.4653 56.936C93.0919 56.2427 92.9053 55.4747 92.9053 54.632C92.9053 53.7573 93.0919 52.984 93.4653 52.312C93.8493 51.6293 94.3666 51.0907 95.0173 50.696C95.6786 50.3013 96.4146 50.104 97.2253 50.104C97.9079 50.104 98.5053 50.216 99.0173 50.44C99.5399 50.664 99.9826 50.9733 100.345 51.368C100.708 51.7627 100.985 52.216 101.177 52.728C101.369 53.2293 101.465 53.7733 101.465 54.36C101.465 54.5093 101.455 54.664 101.433 54.824C101.423 54.984 101.396 55.1227 101.353 55.24H94.6332V53.64H100.169L99.1773 54.392C99.2733 53.9013 99.2466 53.464 99.0973 53.08C98.9586 52.696 98.7239 52.392 98.3933 52.168C98.0733 51.944 97.6839 51.832 97.2253 51.832C96.7879 51.832 96.3986 51.944 96.0573 52.168C95.7159 52.3813 95.4546 52.7013 95.2733 53.128C95.1026 53.544 95.0386 54.0507 95.0813 54.648C95.0386 55.1813 95.1079 55.656 95.2893 56.072C95.4813 56.4773 95.7586 56.792 96.1213 57.016C96.4946 57.24 96.9213 57.352 97.4013 57.352C97.8813 57.352 98.2866 57.2507 98.6173 57.048C98.9586 56.8453 99.2253 56.5733 99.4173 56.232L101.113 57.064C100.943 57.48 100.676 57.848 100.313 58.168C99.9506 58.488 99.5186 58.7387 99.0173 58.92C98.5266 59.1013 97.9826 59.192 97.3853 59.192ZM103.054 59V50.296H105.022V52.312L104.798 51.976C104.958 51.3467 105.278 50.8773 105.758 50.568C106.238 50.2587 106.803 50.104 107.454 50.104C108.169 50.104 108.798 50.2907 109.342 50.664C109.886 51.0373 110.238 51.528 110.398 52.136L109.806 52.184C110.073 51.4907 110.473 50.9733 111.006 50.632C111.539 50.28 112.153 50.104 112.846 50.104C113.465 50.104 114.014 50.2427 114.494 50.52C114.985 50.7973 115.369 51.1867 115.646 51.688C115.923 52.1787 116.062 52.7493 116.062 53.4V59H113.966V53.896C113.966 53.512 113.897 53.1813 113.758 52.904C113.619 52.6267 113.427 52.4133 113.182 52.264C112.937 52.104 112.638 52.024 112.286 52.024C111.955 52.024 111.662 52.104 111.406 52.264C111.15 52.4133 110.953 52.6267 110.814 52.904C110.675 53.1813 110.606 53.512 110.606 53.896V59H108.51V53.896C108.51 53.512 108.441 53.1813 108.302 52.904C108.163 52.6267 107.966 52.4133 107.71 52.264C107.465 52.104 107.171 52.024 106.83 52.024C106.499 52.024 106.206 52.104 105.95 52.264C105.694 52.4133 105.497 52.6267 105.358 52.904C105.219 53.1813 105.15 53.512 105.15 53.896V59H103.054ZM122.587 59.192C121.958 59.192 121.377 59.0693 120.843 58.824C120.321 58.568 119.905 58.2053 119.595 57.736L119.803 57.32V59H117.835V46.888H119.931V52.024L119.611 51.592C119.91 51.1227 120.315 50.76 120.827 50.504C121.339 50.2373 121.931 50.104 122.603 50.104C123.425 50.104 124.166 50.3067 124.827 50.712C125.489 51.1173 126.011 51.6613 126.395 52.344C126.79 53.0267 126.987 53.7947 126.987 54.648C126.987 55.4907 126.795 56.2587 126.411 56.952C126.027 57.6453 125.505 58.1947 124.843 58.6C124.182 58.9947 123.43 59.192 122.587 59.192ZM122.347 57.272C122.827 57.272 123.254 57.16 123.627 56.936C124.001 56.712 124.289 56.4027 124.491 56.008C124.705 55.6133 124.811 55.16 124.811 54.648C124.811 54.136 124.705 53.688 124.491 53.304C124.289 52.9093 124.001 52.6 123.627 52.376C123.254 52.1413 122.827 52.024 122.347 52.024C121.889 52.024 121.473 52.136 121.099 52.36C120.737 52.584 120.449 52.8987 120.235 53.304C120.033 53.6987 119.931 54.1467 119.931 54.648C119.931 55.16 120.033 55.6133 120.235 56.008C120.449 56.4027 120.737 56.712 121.099 56.936C121.473 57.16 121.889 57.272 122.347 57.272ZM132.713 59.192C131.817 59.192 131.033 58.9893 130.361 58.584C129.689 58.1787 129.167 57.6293 128.793 56.936C128.42 56.2427 128.233 55.4747 128.233 54.632C128.233 53.7573 128.42 52.984 128.793 52.312C129.177 51.6293 129.695 51.0907 130.345 50.696C131.007 50.3013 131.743 50.104 132.553 50.104C133.236 50.104 133.833 50.216 134.345 50.44C134.868 50.664 135.311 50.9733 135.673 51.368C136.036 51.7627 136.313 52.216 136.505 52.728C136.697 53.2293 136.793 53.7733 136.793 54.36C136.793 54.5093 136.783 54.664 136.761 54.824C136.751 54.984 136.724 55.1227 136.681 55.24H129.961V53.64H135.497L134.505 54.392C134.601 53.9013 134.575 53.464 134.425 53.08C134.287 52.696 134.052 52.392 133.721 52.168C133.401 51.944 133.012 51.832 132.553 51.832C132.116 51.832 131.727 51.944 131.385 52.168C131.044 52.3813 130.783 52.7013 130.601 53.128C130.431 53.544 130.367 54.0507 130.409 54.648C130.367 55.1813 130.436 55.656 130.617 56.072C130.809 56.4773 131.087 56.792 131.449 57.016C131.823 57.24 132.249 57.352 132.729 57.352C133.209 57.352 133.615 57.2507 133.945 57.048C134.287 56.8453 134.553 56.5733 134.745 56.232L136.441 57.064C136.271 57.48 136.004 57.848 135.641 58.168C135.279 58.488 134.847 58.7387 134.345 58.92C133.855 59.1013 133.311 59.192 132.713 59.192ZM138.382 59V50.296H140.35V52.232L140.19 51.944C140.393 51.2933 140.708 50.84 141.134 50.584C141.572 50.328 142.094 50.2 142.702 50.2H143.214V52.056H142.462C141.865 52.056 141.385 52.2427 141.022 52.616C140.66 52.9787 140.478 53.4907 140.478 54.152V59H138.382ZM147.679 59.192C146.751 59.192 145.94 58.9733 145.247 58.536C144.564 58.088 144.095 57.4853 143.839 56.728L145.407 55.976C145.631 56.4667 145.94 56.8507 146.335 57.128C146.74 57.4053 147.188 57.544 147.679 57.544C148.063 57.544 148.367 57.4587 148.591 57.288C148.815 57.1173 148.927 56.8933 148.927 56.616C148.927 56.4453 148.879 56.3067 148.783 56.2C148.697 56.0827 148.575 55.9867 148.415 55.912C148.265 55.8267 148.1 55.7573 147.919 55.704L146.495 55.304C145.759 55.0907 145.199 54.7653 144.815 54.328C144.441 53.8907 144.255 53.3733 144.255 52.776C144.255 52.2427 144.388 51.7787 144.655 51.384C144.932 50.9787 145.311 50.664 145.791 50.44C146.281 50.216 146.841 50.104 147.471 50.104C148.292 50.104 149.017 50.3013 149.647 50.696C150.276 51.0907 150.724 51.6453 150.991 52.36L149.391 53.112C149.241 52.7173 148.991 52.4027 148.639 52.168C148.287 51.9333 147.892 51.816 147.455 51.816C147.103 51.816 146.825 51.896 146.623 52.056C146.42 52.216 146.319 52.424 146.319 52.68C146.319 52.84 146.361 52.9787 146.447 53.096C146.532 53.2133 146.649 53.3093 146.799 53.384C146.959 53.4587 147.14 53.528 147.343 53.592L148.735 54.008C149.449 54.2213 149.999 54.5413 150.383 54.968C150.777 55.3947 150.975 55.9173 150.975 56.536C150.975 57.0587 150.836 57.5227 150.559 57.928C150.281 58.3227 149.897 58.632 149.407 58.856C148.916 59.08 148.34 59.192 147.679 59.192Z" fill="#83869A"/>
<path d="M79.68 110V105.2L87.68 96.96C89.2533 95.3333 90.44 94.0533 91.24 93.12C92.0667 92.16 92.6267 91.36 92.92 90.72C93.24 90.08 93.4 89.4533 93.4 88.84C93.4 87.7467 93.04 86.8933 92.32 86.28C91.6267 85.64 90.7467 85.32 89.68 85.32C88.5867 85.32 87.6133 85.64 86.76 86.28C85.9067 86.8933 85.28 87.84 84.88 89.12L79.48 87.36C79.8 85.8133 80.4667 84.4667 81.48 83.32C82.4933 82.1733 83.72 81.2933 85.16 80.68C86.6 80.04 88.1067 79.72 89.68 79.72C91.6533 79.72 93.3867 80.0667 94.88 80.76C96.3733 81.4533 97.5333 82.4267 98.36 83.68C99.1867 84.9333 99.6 86.4 99.6 88.08C99.6 89.1467 99.4133 90.2 99.04 91.24C98.6667 92.2533 98.0933 93.2933 97.32 94.36C96.5733 95.4 95.6 96.5333 94.4 97.76L87.56 104.8H99.88V110H79.68ZM104.908 110L114.948 97.16L115.948 98.56C115.575 98.72 115.215 98.8667 114.868 99C114.548 99.1067 114.215 99.1867 113.868 99.24C113.521 99.2933 113.161 99.32 112.788 99.32C110.948 99.32 109.308 98.9067 107.868 98.08C106.455 97.2533 105.335 96.1333 104.508 94.72C103.708 93.28 103.308 91.6667 103.308 89.88C103.308 87.9067 103.761 86.16 104.668 84.64C105.575 83.12 106.828 81.92 108.428 81.04C110.028 80.16 111.855 79.72 113.908 79.72C115.988 79.72 117.815 80.16 119.388 81.04C120.988 81.8933 122.241 83.0667 123.148 84.56C124.055 86.0267 124.508 87.7067 124.508 89.6C124.508 90.5333 124.415 91.4667 124.228 92.4C124.041 93.3333 123.668 94.36 123.108 95.48C122.548 96.5733 121.708 97.8533 120.588 99.32L112.308 110H104.908ZM113.908 94.24C114.735 94.24 115.468 94.0533 116.108 93.68C116.775 93.3067 117.308 92.7867 117.708 92.12C118.108 91.4533 118.308 90.68 118.308 89.8C118.308 88.8933 118.108 88.1067 117.708 87.44C117.308 86.7733 116.775 86.2533 116.108 85.88C115.468 85.5067 114.735 85.32 113.908 85.32C113.108 85.32 112.375 85.5067 111.708 85.88C111.041 86.2533 110.508 86.7733 110.108 87.44C109.708 88.1067 109.508 88.8933 109.508 89.8C109.508 90.68 109.708 91.4533 110.108 92.12C110.508 92.7867 111.041 93.3067 111.708 93.68C112.375 94.0533 113.108 94.24 113.908 94.24ZM128.169 110V79.72H134.169V99.12L131.929 98.4L141.569 88.16H148.969L141.049 96.96L148.929 110H142.129L135.529 98.92L139.009 98.04L132.329 105.32L134.169 101.84V110H128.169Z" fill="#13183F"/>
<defs>
<filter id="filter0_d_4_1420" x="0" y="0" width="263" height="228" filterUnits="userSpaceOnUse" color-interpolation-filters="sRGB">
<feFlood flood-opacity="0" result="BackgroundImageFix"/>
<feColorMatrix in="SourceAlpha" type="matrix" values="0 0 0 0 0 0 0 0 0 0 0 0 0 0 0 0 0 0 127 0" result="hardAlpha"/>
<feOffset dy="34"/>
<feGaussianBlur stdDeviation="27"/>
<feColorMatrix type="matrix" values="0 0 0 0 0.0241629 0 0 0 0 0.0843621 0 0 0 0 0.553916 0 0 0 0.158854 0"/>
<feBlend mode="normal" in2="BackgroundImageFix" result="effect1_dropShadow_4_1420"/>
<feBlend mode="normal" in="SourceGraphic" in2="effect1_dropShadow_4_1420" result="shape"/>
</filter>
</defs>
</svg>
